HIERARCHY
ROOT Hips
{
	OFFSET 0.000000 0.000000 0.000000
	CHANNELS 6 Xposition Yposition Zposition Zrotation Yrotation Xrotation 
	JOINT LowerBack
	{
		OFFSET 0.000000 0.000000 0.000000
		CHANNELS 3 Zrotation Yrotation Xrotation
		JOINT Spine
		{
			OFFSET 0.028270 2.035590 -0.193380
			CHANNELS 3 Zrotation Yrotation Xrotation
			JOINT Spine1
			{
				OFFSET 0.056720 2.048850 -0.042750
				CHANNELS 3 Zrotation Yrotation Xrotation
				JOINT Neck
				{
					OFFSET 0.000000 0.000000 0.000000
					CHANNELS 3 Zrotation Yrotation Xrotation
					JOINT Neck1
					{
						OFFSET -0.054170 1.746240 0.172020
						CHANNELS 3 Zrotation Yrotation Xrotation
						JOINT Head
						{
							OFFSET 0.104070 1.761360 -0.123970
							CHANNELS 3 Zrotation Yrotation Xrotation
							End Site
							{
								OFFSET 0.000000 0.000000 0.000000
							}
						}
					}
				}
				JOINT LeftShoulder
				{
					OFFSET 0.000000 0.000000 0.000000
					CHANNELS 3 Zrotation Yrotation Xrotation
					JOINT LeftArm
					{
						OFFSET 3.362410 1.200890 -0.311210
						CHANNELS 3 Zrotation Yrotation Xrotation
						JOINT LeftForeArm
						{
							OFFSET 4.983000 -0.000000 -0.000000
							CHANNELS 3 Zrotation Yrotation Xrotation
							JOINT LeftHand
							{
								OFFSET 3.483560 -0.000000 -0.000000
								CHANNELS 3 Zrotation Yrotation Xrotation
								JOINT LeftFingerBase
								{
									OFFSET 0.000000 0.000000 0.000000
									CHANNELS 3 Zrotation Yrotation Xrotation
									JOINT LeftHandIndex1
									{
										OFFSET 0.715260 -0.000000 -0.000000
										CHANNELS 3 Zrotation Yrotation Xrotation
										End Site
										{
											OFFSET 0.000000 0.000000 0.000000
										}
									}
								}
								JOINT LThumb
								{
									OFFSET 0.000000 0.000000 0.000000
									CHANNELS 3 Zrotation Yrotation Xrotation
									End Site
									{
										OFFSET 0.000000 0.000000 0.000000
									}
								}
							}
						}
					}
				}
				JOINT RightShoulder
				{
					OFFSET 0.000000 0.000000 0.000000
					CHANNELS 3 Zrotation Yrotation Xrotation
					JOINT RightArm
					{
						OFFSET -3.136600 1.374050 -0.404650
						CHANNELS 3 Zrotation Yrotation Xrotation
						JOINT RightForeArm
						{
							OFFSET -5.241900 -0.000000 -0.000000
							CHANNELS 3 Zrotation Yrotation Xrotation
							JOINT RightHand
							{
								OFFSET -3.444170 -0.000000 -0.000000
								CHANNELS 3 Zrotation Yrotation Xrotation
								JOINT RightFingerBase
								{
									OFFSET 0.000000 0.000000 0.000000
									CHANNELS 3 Zrotation Yrotation Xrotation
									JOINT RightHandIndex1
									{
										OFFSET -0.622530 -0.000000 -0.000000
										CHANNELS 3 Zrotation Yrotation Xrotation
										End Site
										{
											OFFSET 0.000000 0.000000 0.000000
										}
									}
								}
								JOINT RThumb
								{
									OFFSET 0.000000 0.000000 0.000000
									CHANNELS 3 Zrotation Yrotation Xrotation
									End Site
									{
										OFFSET 0.000000 0.000000 0.000000
									}
								}
							}
						}
					}
				}
			}
		}
	}
}
}
MOTION
Frames: 15
Frame Time: 0.008333
-20.281957 15.299614 -2.641926 168.900334 87.260538 -161.356353 12.125843 -4.297719 -1.154077 1.408769 -5.147376 -2.854898 -8.620688 -5.213759 1.452612 10.439480 -11.308683 -7.690260 -4.210160 -0.313578 -0.160356 0.000000 0.000000 0.000000 2.457257 1.226253 2.596529 -12.454615 -34.124813 1.179824 179.991710 -89.887802 -179.910586 -10.397841 -2.448648 0.278433 0.218906 0.553120 0.000000 0.000000 0.000000 0.000000 0.000000 0.000000 0.000000 20.014164 -11.515498 2.222005 61.507624 -19.235432 -10.740319 3.738450 30.098511 0.026978 4.365797 13.674378 0.517002 0.086984 -0.070942 -0.000000 0.000000 0.000000 0.000000 0.000000 0.000000 0.000000 
-20.016234 15.302573 -2.618820 174.940331 87.605305 -154.997538 12.803021 -4.163432 -1.256136 1.517990 -5.060663 -2.888173 -8.712627 -5.133456 1.442885 10.355027 -11.112903 -7.771659 -4.289553 -0.318766 -0.188481 0.000000 0.000000 0.000000 2.394592 1.497737 2.637441 -12.179253 -33.061433 0.984778 -179.977473 -88.872379 -179.909675 -10.500339 -2.503990 0.286369 0.218243 0.554505 0.000000 0.000000 0.000000 0.000000 0.000000 0.000000 0.000000 20.204342 -11.222106 2.254040 61.217984 -18.377462 -10.859947 3.734424 29.990613 0.027047 4.239328 13.710536 0.503115 0.087135 -0.072404 -0.000000 0.000000 0.000000 0.000000 0.000000 0.000000 0.000000 
-19.747592 15.312338 -2.593506 -179.707321 87.890099 -149.342458 13.385032 -4.055244 -1.361246 1.613791 -4.995373 -2.919953 -8.801113 -5.074320 1.439878 10.282534 -10.895032 -7.844988 -4.371123 -0.324112 -0.214770 0.000000 0.000000 0.000000 2.313019 1.760173 2.692662 -12.056762 -31.915291 0.989153 -179.947615 -87.974711 -179.909402 -10.567370 -2.554551 0.292721 0.215170 0.553353 0.000000 0.000000 0.000000 0.000000 0.000000 0.000000 0.000000 20.417703 -10.917756 2.276300 60.920511 -17.413210 -10.915939 3.727493 29.869395 0.027042 4.099739 13.750816 0.487727 0.087055 -0.073848 -0.000000 0.000000 0.000000 0.000000 0.000000 0.000000 0.000000 
-19.477099 15.328864 -2.565513 -175.105446 88.112648 -144.459251 13.887335 -3.971888 -1.472291 1.698581 -4.951340 -2.949914 -8.886466 -5.035406 1.445179 10.227394 -10.659525 -7.906780 -4.454106 -0.329594 -0.237910 0.000000 0.000000 0.000000 2.214936 2.020418 2.758735 -12.078986 -30.721712 1.198888 -179.919828 -87.225602 -179.909733 -10.606542 -2.601447 0.297790 0.209976 0.549549 0.000000 0.000000 0.000000 0.000000 0.000000 0.000000 0.000000 20.658996 -10.610362 2.285716 60.619859 -16.345361 -10.911511 3.718068 29.737942 0.026972 3.943682 13.794978 0.470339 0.086801 -0.075314 -0.000000 0.000000 0.000000 0.000000 0.000000 0.000000 0.000000 
-19.205421 15.351959 -2.533905 -171.457204 88.280166 -140.555036 14.308423 -3.909817 -1.590840 1.769942 -4.925408 -2.978636 -8.970250 -5.012667 1.455595 10.197797 -10.404768 -7.947971 -4.539096 -0.335348 -0.254919 0.000000 0.000000 0.000000 2.129734 2.249047 2.832705 -12.268911 -29.455834 1.619369 -179.893746 -86.625827 -179.910625 -10.631531 -2.641335 0.301378 0.203091 0.542638 0.000000 0.000000 0.000000 0.000000 0.000000 0.000000 0.000000 20.939074 -10.300030 2.282193 60.325621 -15.187888 -10.857272 3.706466 29.598813 0.026845 3.770209 13.840971 0.450850 0.086426 -0.076854 -0.000000 0.000000 0.000000 0.000000 0.000000 0.000000 0.000000 
-18.933806 15.381616 -2.498522 -168.649761 88.420158 -137.517887 14.647283 -3.859490 -1.712574 1.825330 -4.908033 -3.004587 -9.052387 -4.995910 1.472681 10.196956 -10.132574 -7.968214 -4.624991 -0.341261 -0.265563 0.000000 0.000000 0.000000 2.052338 2.466050 2.910581 -12.598206 -28.163838 2.243265 -179.871544 -86.207600 -179.912038 -10.648155 -2.676193 0.303984 0.194792 0.532645 0.000000 0.000000 0.000000 0.000000 0.000000 0.000000 0.000000 21.260894 -9.986631 2.264786 60.043660 -13.940757 -10.761649 3.693279 29.449742 0.026677 3.580468 13.886602 0.429159 0.085974 -0.078558 -0.000000 0.000000 0.000000 0.000000 0.000000 0.000000 0.000000 
-18.662994 15.417764 -2.459382 -166.577977 88.556347 -135.244638 14.895860 -3.813571 -1.832511 1.861288 -4.891243 -3.027631 -9.132152 -4.977078 1.492829 10.224339 -9.837362 -7.961749 -4.711515 -0.347343 -0.268114 0.000000 0.000000 0.000000 1.995892 2.654409 2.990555 -13.072722 -26.832924 3.060250 -179.854093 -85.973282 -179.913914 -10.666982 -2.705071 0.305710 0.185409 0.519423 0.000000 0.000000 0.000000 0.000000 0.000000 0.000000 0.000000 21.622653 -9.661955 2.236185 59.783578 -12.615511 -10.639842 3.678784 29.289285 0.026469 3.379264 13.927986 0.405866 0.085454 -0.080514 -0.000000 0.000000 0.000000 0.000000 0.000000 0.000000 0.000000 
-18.394170 15.460307 -2.416644 -165.142560 88.707749 -133.637771 15.045837 -3.766727 -1.943659 1.875025 -4.868690 -3.046469 -9.208328 -4.949892 1.515083 10.279396 -9.515369 -7.927955 -4.797627 -0.353487 -0.262465 0.000000 0.000000 0.000000 1.960236 2.821175 3.071157 -13.670953 -25.486536 4.052367 -179.843374 -85.939817 -179.916208 -10.692321 -2.728734 0.306955 0.175130 0.503108 0.000000 0.000000 0.000000 0.000000 0.000000 0.000000 0.000000 22.021809 -9.319803 2.197998 59.552567 -11.219300 -10.502195 3.663033 29.116284 0.026223 3.173572 13.962434 0.381671 0.084841 -0.082805 -0.000000 0.000000 0.000000 0.000000 0.000000 0.000000 0.000000 
-18.127871 15.509116 -2.370675 -164.232919 88.888322 -132.589920 15.091662 -3.715576 -2.037939 1.865056 -4.835780 -3.060998 -9.278858 -4.910432 1.534055 10.357103 -9.161344 -7.862649 -4.882524 -0.359653 -0.247549 0.000000 0.000000 0.000000 1.959755 2.939952 3.152379 -14.403005 -24.091821 5.196760 -179.840197 -86.096605 -179.918873 -10.731814 -2.745862 0.307621 0.164215 0.483724 0.000000 0.000000 0.000000 0.000000 0.000000 0.000000 0.000000 22.447898 -8.952066 2.155237 59.359103 -9.761863 -10.354035 3.645956 28.928070 0.025942 2.969667 13.989456 0.357374 0.084109 -0.085524 -0.000000 0.000000 0.000000 0.000000 0.000000 0.000000 0.000000 
-17.864829 15.564110 -2.322317 -163.648672 89.105093 -131.898903 15.038210 -3.656799 -2.109240 1.832796 -4.788600 -3.069084 -9.341600 -4.855229 1.553379 10.452568 -8.768171 -7.773375 -4.964073 -0.365570 -0.225890 0.000000 0.000000 0.000000 1.965887 3.066732 3.234324 -15.205368 -22.747859 6.467929 -179.848954 -86.488356 -179.921893 -10.776675 -2.761005 0.308006 0.152442 0.462018 0.000000 0.000000 0.000000 0.000000 0.000000 0.000000 0.000000 22.891367 -8.548050 2.107225 59.204354 -8.253237 -10.202117 3.627240 28.735373 0.025611 2.783436 14.003604 0.334877 0.083141 -0.088714 -0.000000 0.000000 0.000000 0.000000 0.000000 0.000000 0.000000 
-17.605692 15.625134 -2.272307 -163.247822 89.362308 -131.424114 14.888533 -3.589427 -2.151353 1.779647 -4.725353 -3.071421 -9.393865 -4.783543 1.567139 10.557064 -8.329832 -7.657414 -5.041179 -0.371184 -0.196946 0.000000 0.000000 0.000000 1.990072 3.174795 3.318443 -16.092999 -21.417443 7.837826 -179.870803 -87.097710 -179.925130 -10.829893 -2.772861 0.308110 0.139921 0.438195 0.000000 0.000000 0.000000 0.000000 0.000000 0.000000 0.000000 23.334326 -8.098341 2.059509 59.092923 -6.707799 -10.043087 3.606687 28.543292 0.025236 2.624419 14.006722 0.315576 0.081881 -0.092431 -0.000000 0.000000 0.000000 0.000000 0.000000 0.000000 0.000000 
-17.350800 15.692078 -2.221497 -162.840516 89.661475 -130.973093 14.650183 -3.512510 -2.161140 1.708071 -4.644813 -3.067684 -9.433846 -4.694829 1.575471 10.663674 -7.836777 -7.518895 -5.112406 -0.376336 -0.162241 0.000000 0.000000 0.000000 2.014733 3.292652 3.406688 -17.031172 -20.151218 9.280176 -179.908932 -87.942644 -179.928633 -10.883202 -2.783807 0.307934 0.126417 0.412876 0.000000 0.000000 0.000000 0.000000 0.000000 0.000000 0.000000 23.763069 -7.589547 2.013052 59.023900 -5.145290 -9.876597 3.583809 28.371463 0.024815 2.509585 13.996907 0.301375 0.080195 -0.096675 -0.000000 0.000000 0.000000 0.000000 0.000000 0.000000 0.000000 
-17.099851 15.764814 -2.170679 17.803313 89.996028 49.684078 14.328125 -3.427293 -2.135373 1.620597 -4.547695 -3.059705 -9.457433 -4.590912 1.571821 10.762086 -7.299746 -7.356717 -5.176190 -0.380964 -0.121542 0.000000 0.000000 0.000000 2.057486 3.369373 3.498598 -18.061320 -18.866098 10.758831 -179.963888 -88.987174 -179.932340 -10.941796 -2.791827 0.307568 0.112233 0.386180 0.000000 0.000000 0.000000 0.000000 0.000000 0.000000 0.000000 24.154841 -7.030995 1.974465 58.992923 -3.560632 -9.669411 3.559228 28.215312 0.024379 2.435597 13.984118 0.292373 0.078151 -0.101487 -0.000000 0.000000 0.000000 0.000000 0.000000 0.000000 0.000000 
-16.852896 15.843282 -2.120612 18.991150 89.613073 50.859877 13.927894 -3.335674 -2.077015 1.519494 -4.436066 -3.047884 -9.463253 -4.474156 1.558808 10.847547 -6.715656 -7.177113 -5.231452 -0.384945 -0.076817 0.000000 0.000000 0.000000 2.094525 3.439628 3.595429 -19.145009 -17.622547 12.248151 -0.039237 -89.748249 0.063800 -10.995423 -2.799465 0.306911 0.097120 0.358759 0.000000 0.000000 0.000000 0.000000 0.000000 0.000000 0.000000 24.500346 -6.417990 1.942327 58.990817 -1.971527 -9.410714 3.532787 28.100201 0.023934 2.416844 13.967623 0.290073 0.075641 -0.106798 -0.000000 0.000000 0.000000 0.000000 0.000000 0.000000 0.000000 
-16.609255 15.927263 -2.071873 21.165890 89.199193 53.001515 13.452024 -3.243439 -1.993607 1.406865 -4.316041 -3.033933 -9.449393 -4.350887 1.538087 10.915656 -6.091294 -6.984560 -5.277303 -0.388219 -0.029313 0.000000 0.000000 0.000000 2.113689 3.509289 3.697505 -20.270164 -16.435862 13.721742 -0.137382 -88.262575 0.059840 -11.038341 -2.807389 0.305862 0.081017 0.331047 0.000000 0.000000 0.000000 0.000000 0.000000 0.000000 0.000000 24.789876 -5.758801 1.915973 59.006042 -0.386033 -9.077919 3.504749 28.043103 0.023498 2.458688 13.950516 0.295371 0.072631 -0.112514 -0.000000 0.000000 0.000000 0.000000 0.000000 0.000000 0.000000 
